<mxfile host="app.diagrams.net" modified="2023-08-31T23:11:52.868Z" agent="Mozilla/5.0 (Macintosh; Intel Mac OS X 10_15_7) AppleWebKit/537.36 (KHTML, like Gecko) Chrome/116.0.0.0 Safari/537.36" etag="CMITzG8Ccun36ioLgwsP" version="21.7.1" type="device">
  <diagram id="R2lEEEUBdFMjLlhIrx00" name="Page-1">
    <mxGraphModel dx="934" dy="414" grid="1" gridSize="10" guides="1" tooltips="1" connect="1" arrows="1" fold="1" page="1" pageScale="1" pageWidth="850" pageHeight="1100" math="0" shadow="0" extFonts="Permanent Marker^https://fonts.googleapis.com/css?family=Permanent+Marker">
      <root>
        <mxCell id="0" />
        <mxCell id="1" parent="0" />
        <mxCell id="0_7FmObyVGuV5WAzf2Y2-1" value="EMPRESTIMO" style="swimlane;fontStyle=0;childLayout=stackLayout;horizontal=1;startSize=30;horizontalStack=0;resizeParent=1;resizeParentMax=0;resizeLast=0;collapsible=1;marginBottom=0;whiteSpace=wrap;html=1;fillColor=#EFFF0F;" vertex="1" parent="1">
          <mxGeometry x="380" y="120" width="140" height="240" as="geometry" />
        </mxCell>
        <mxCell id="0_7FmObyVGuV5WAzf2Y2-2" value="COD_EMPRESTIMO" style="text;strokeColor=none;fillColor=none;align=left;verticalAlign=middle;spacingLeft=4;spacingRight=4;overflow=hidden;points=[[0,0.5],[1,0.5]];portConstraint=eastwest;rotatable=0;whiteSpace=wrap;html=1;" vertex="1" parent="0_7FmObyVGuV5WAzf2Y2-1">
          <mxGeometry y="30" width="140" height="30" as="geometry" />
        </mxCell>
        <mxCell id="0_7FmObyVGuV5WAzf2Y2-3" value="COD_ALUNO" style="text;strokeColor=none;fillColor=none;align=left;verticalAlign=middle;spacingLeft=4;spacingRight=4;overflow=hidden;points=[[0,0.5],[1,0.5]];portConstraint=eastwest;rotatable=0;whiteSpace=wrap;html=1;" vertex="1" parent="0_7FmObyVGuV5WAzf2Y2-1">
          <mxGeometry y="60" width="140" height="30" as="geometry" />
        </mxCell>
        <mxCell id="0_7FmObyVGuV5WAzf2Y2-4" value="COD_FUNCIONARIO" style="text;strokeColor=none;fillColor=none;align=left;verticalAlign=middle;spacingLeft=4;spacingRight=4;overflow=hidden;points=[[0,0.5],[1,0.5]];portConstraint=eastwest;rotatable=0;whiteSpace=wrap;html=1;" vertex="1" parent="0_7FmObyVGuV5WAzf2Y2-1">
          <mxGeometry y="90" width="140" height="30" as="geometry" />
        </mxCell>
        <mxCell id="0_7FmObyVGuV5WAzf2Y2-25" value="DATA_EMPRESTIMO" style="text;strokeColor=none;fillColor=none;align=left;verticalAlign=middle;spacingLeft=4;spacingRight=4;overflow=hidden;points=[[0,0.5],[1,0.5]];portConstraint=eastwest;rotatable=0;whiteSpace=wrap;html=1;" vertex="1" parent="0_7FmObyVGuV5WAzf2Y2-1">
          <mxGeometry y="120" width="140" height="30" as="geometry" />
        </mxCell>
        <mxCell id="0_7FmObyVGuV5WAzf2Y2-26" value="DATA_DEVOLUCAO" style="text;strokeColor=none;fillColor=none;align=left;verticalAlign=middle;spacingLeft=4;spacingRight=4;overflow=hidden;points=[[0,0.5],[1,0.5]];portConstraint=eastwest;rotatable=0;whiteSpace=wrap;html=1;" vertex="1" parent="0_7FmObyVGuV5WAzf2Y2-1">
          <mxGeometry y="150" width="140" height="30" as="geometry" />
        </mxCell>
        <mxCell id="0_7FmObyVGuV5WAzf2Y2-48" value="VLR_MULTA" style="text;strokeColor=none;fillColor=none;align=left;verticalAlign=middle;spacingLeft=4;spacingRight=4;overflow=hidden;points=[[0,0.5],[1,0.5]];portConstraint=eastwest;rotatable=0;whiteSpace=wrap;html=1;" vertex="1" parent="0_7FmObyVGuV5WAzf2Y2-1">
          <mxGeometry y="180" width="140" height="30" as="geometry" />
        </mxCell>
        <mxCell id="0_7FmObyVGuV5WAzf2Y2-49" value="ATIVO" style="text;strokeColor=none;fillColor=none;align=left;verticalAlign=middle;spacingLeft=4;spacingRight=4;overflow=hidden;points=[[0,0.5],[1,0.5]];portConstraint=eastwest;rotatable=0;whiteSpace=wrap;html=1;" vertex="1" parent="0_7FmObyVGuV5WAzf2Y2-1">
          <mxGeometry y="210" width="140" height="30" as="geometry" />
        </mxCell>
        <mxCell id="0_7FmObyVGuV5WAzf2Y2-6" value="LIVROS_EMPRESTIMO" style="swimlane;fontStyle=0;childLayout=stackLayout;horizontal=1;startSize=30;horizontalStack=0;resizeParent=1;resizeParentMax=0;resizeLast=0;collapsible=1;marginBottom=0;whiteSpace=wrap;html=1;fillColor=#EFFF0F;" vertex="1" parent="1">
          <mxGeometry x="50" y="30" width="250" height="120" as="geometry" />
        </mxCell>
        <mxCell id="0_7FmObyVGuV5WAzf2Y2-7" value="COD_LIVROS_EMPRESTIMO" style="text;strokeColor=none;fillColor=none;align=left;verticalAlign=middle;spacingLeft=4;spacingRight=4;overflow=hidden;points=[[0,0.5],[1,0.5]];portConstraint=eastwest;rotatable=0;whiteSpace=wrap;html=1;" vertex="1" parent="0_7FmObyVGuV5WAzf2Y2-6">
          <mxGeometry y="30" width="250" height="30" as="geometry" />
        </mxCell>
        <mxCell id="0_7FmObyVGuV5WAzf2Y2-8" value="COD_EMPRESTIMO" style="text;strokeColor=none;fillColor=none;align=left;verticalAlign=middle;spacingLeft=4;spacingRight=4;overflow=hidden;points=[[0,0.5],[1,0.5]];portConstraint=eastwest;rotatable=0;whiteSpace=wrap;html=1;" vertex="1" parent="0_7FmObyVGuV5WAzf2Y2-6">
          <mxGeometry y="60" width="250" height="30" as="geometry" />
        </mxCell>
        <mxCell id="0_7FmObyVGuV5WAzf2Y2-11" value="COD_LIVRO" style="text;strokeColor=none;fillColor=none;align=left;verticalAlign=middle;spacingLeft=4;spacingRight=4;overflow=hidden;points=[[0,0.5],[1,0.5]];portConstraint=eastwest;rotatable=0;whiteSpace=wrap;html=1;" vertex="1" parent="0_7FmObyVGuV5WAzf2Y2-6">
          <mxGeometry y="90" width="250" height="30" as="geometry" />
        </mxCell>
        <mxCell id="0_7FmObyVGuV5WAzf2Y2-13" value="EXEMPLARES_EMPRESTIMO" style="swimlane;fontStyle=0;childLayout=stackLayout;horizontal=1;startSize=30;horizontalStack=0;resizeParent=1;resizeParentMax=0;resizeLast=0;collapsible=1;marginBottom=0;whiteSpace=wrap;html=1;fillColor=#EFFF0F;" vertex="1" parent="1">
          <mxGeometry x="540" y="30" width="230" height="120" as="geometry" />
        </mxCell>
        <mxCell id="0_7FmObyVGuV5WAzf2Y2-14" value="COD_EXEMPLARES_EMPRESTIMO" style="text;strokeColor=none;fillColor=none;align=left;verticalAlign=middle;spacingLeft=4;spacingRight=4;overflow=hidden;points=[[0,0.5],[1,0.5]];portConstraint=eastwest;rotatable=0;whiteSpace=wrap;html=1;" vertex="1" parent="0_7FmObyVGuV5WAzf2Y2-13">
          <mxGeometry y="30" width="230" height="30" as="geometry" />
        </mxCell>
        <mxCell id="0_7FmObyVGuV5WAzf2Y2-15" value="COD_LIVROS_EMPRESTIMO" style="text;strokeColor=none;fillColor=none;align=left;verticalAlign=middle;spacingLeft=4;spacingRight=4;overflow=hidden;points=[[0,0.5],[1,0.5]];portConstraint=eastwest;rotatable=0;whiteSpace=wrap;html=1;" vertex="1" parent="0_7FmObyVGuV5WAzf2Y2-13">
          <mxGeometry y="60" width="230" height="30" as="geometry" />
        </mxCell>
        <mxCell id="0_7FmObyVGuV5WAzf2Y2-16" value="QTD_EXEMPLAR" style="text;strokeColor=none;fillColor=none;align=left;verticalAlign=middle;spacingLeft=4;spacingRight=4;overflow=hidden;points=[[0,0.5],[1,0.5]];portConstraint=eastwest;rotatable=0;whiteSpace=wrap;html=1;" vertex="1" parent="0_7FmObyVGuV5WAzf2Y2-13">
          <mxGeometry y="90" width="230" height="30" as="geometry" />
        </mxCell>
        <mxCell id="0_7FmObyVGuV5WAzf2Y2-18" value="" style="endArrow=none;html=1;rounded=0;entryX=0;entryY=0.5;entryDx=0;entryDy=0;exitX=1;exitY=0.5;exitDx=0;exitDy=0;" edge="1" parent="1" source="0_7FmObyVGuV5WAzf2Y2-8" target="0_7FmObyVGuV5WAzf2Y2-2">
          <mxGeometry width="50" height="50" relative="1" as="geometry">
            <mxPoint x="430" y="230" as="sourcePoint" />
            <mxPoint x="480" y="180" as="targetPoint" />
          </mxGeometry>
        </mxCell>
        <mxCell id="0_7FmObyVGuV5WAzf2Y2-19" value="" style="endArrow=none;html=1;rounded=0;entryX=1;entryY=0.5;entryDx=0;entryDy=0;exitX=0;exitY=0.5;exitDx=0;exitDy=0;" edge="1" parent="1" source="0_7FmObyVGuV5WAzf2Y2-15" target="0_7FmObyVGuV5WAzf2Y2-7">
          <mxGeometry width="50" height="50" relative="1" as="geometry">
            <mxPoint x="430" y="220" as="sourcePoint" />
            <mxPoint x="480" y="170" as="targetPoint" />
          </mxGeometry>
        </mxCell>
        <mxCell id="0_7FmObyVGuV5WAzf2Y2-20" value="ALUNO" style="swimlane;fontStyle=0;childLayout=stackLayout;horizontal=1;startSize=30;horizontalStack=0;resizeParent=1;resizeParentMax=0;resizeLast=0;collapsible=1;marginBottom=0;whiteSpace=wrap;html=1;fillColor=#EFFF0F;" vertex="1" parent="1">
          <mxGeometry x="220" y="165" width="140" height="90" as="geometry" />
        </mxCell>
        <mxCell id="0_7FmObyVGuV5WAzf2Y2-21" value="COD_ALUNO" style="text;strokeColor=none;fillColor=none;align=left;verticalAlign=middle;spacingLeft=4;spacingRight=4;overflow=hidden;points=[[0,0.5],[1,0.5]];portConstraint=eastwest;rotatable=0;whiteSpace=wrap;html=1;" vertex="1" parent="0_7FmObyVGuV5WAzf2Y2-20">
          <mxGeometry y="30" width="140" height="30" as="geometry" />
        </mxCell>
        <mxCell id="0_7FmObyVGuV5WAzf2Y2-22" value="NOME_ALUNO" style="text;strokeColor=none;fillColor=none;align=left;verticalAlign=middle;spacingLeft=4;spacingRight=4;overflow=hidden;points=[[0,0.5],[1,0.5]];portConstraint=eastwest;rotatable=0;whiteSpace=wrap;html=1;" vertex="1" parent="0_7FmObyVGuV5WAzf2Y2-20">
          <mxGeometry y="60" width="140" height="30" as="geometry" />
        </mxCell>
        <mxCell id="0_7FmObyVGuV5WAzf2Y2-24" value="" style="endArrow=none;html=1;rounded=0;entryX=0;entryY=0.5;entryDx=0;entryDy=0;exitX=1;exitY=0.5;exitDx=0;exitDy=0;" edge="1" parent="1" source="0_7FmObyVGuV5WAzf2Y2-21" target="0_7FmObyVGuV5WAzf2Y2-3">
          <mxGeometry width="50" height="50" relative="1" as="geometry">
            <mxPoint x="360" y="135" as="sourcePoint" />
            <mxPoint x="435" y="245" as="targetPoint" />
          </mxGeometry>
        </mxCell>
        <mxCell id="0_7FmObyVGuV5WAzf2Y2-27" value="FUNCIONARIO" style="swimlane;fontStyle=0;childLayout=stackLayout;horizontal=1;startSize=30;horizontalStack=0;resizeParent=1;resizeParentMax=0;resizeLast=0;collapsible=1;marginBottom=0;whiteSpace=wrap;html=1;fillColor=#EFFF0F;" vertex="1" parent="1">
          <mxGeometry x="540" y="180" width="140" height="90" as="geometry" />
        </mxCell>
        <mxCell id="0_7FmObyVGuV5WAzf2Y2-28" value="COD_FUNCIONARIO" style="text;strokeColor=none;fillColor=none;align=left;verticalAlign=middle;spacingLeft=4;spacingRight=4;overflow=hidden;points=[[0,0.5],[1,0.5]];portConstraint=eastwest;rotatable=0;whiteSpace=wrap;html=1;" vertex="1" parent="0_7FmObyVGuV5WAzf2Y2-27">
          <mxGeometry y="30" width="140" height="30" as="geometry" />
        </mxCell>
        <mxCell id="0_7FmObyVGuV5WAzf2Y2-29" value="NOME_FUNCIONARIO" style="text;strokeColor=none;fillColor=none;align=left;verticalAlign=middle;spacingLeft=4;spacingRight=4;overflow=hidden;points=[[0,0.5],[1,0.5]];portConstraint=eastwest;rotatable=0;whiteSpace=wrap;html=1;" vertex="1" parent="0_7FmObyVGuV5WAzf2Y2-27">
          <mxGeometry y="60" width="140" height="30" as="geometry" />
        </mxCell>
        <mxCell id="0_7FmObyVGuV5WAzf2Y2-30" value="" style="endArrow=none;html=1;rounded=0;entryX=1;entryY=0.5;entryDx=0;entryDy=0;exitX=0;exitY=0.5;exitDx=0;exitDy=0;" edge="1" parent="1" source="0_7FmObyVGuV5WAzf2Y2-28" target="0_7FmObyVGuV5WAzf2Y2-4">
          <mxGeometry width="50" height="50" relative="1" as="geometry">
            <mxPoint x="360" y="135" as="sourcePoint" />
            <mxPoint x="390" y="190" as="targetPoint" />
          </mxGeometry>
        </mxCell>
        <mxCell id="0_7FmObyVGuV5WAzf2Y2-31" value="LIVRO" style="swimlane;fontStyle=0;childLayout=stackLayout;horizontal=1;startSize=30;horizontalStack=0;resizeParent=1;resizeParentMax=0;resizeLast=0;collapsible=1;marginBottom=0;whiteSpace=wrap;html=1;fillColor=#EFFF0F;" vertex="1" parent="1">
          <mxGeometry x="70" y="170" width="140" height="180" as="geometry" />
        </mxCell>
        <mxCell id="0_7FmObyVGuV5WAzf2Y2-32" value="COD_LIVRO" style="text;strokeColor=none;fillColor=none;align=left;verticalAlign=middle;spacingLeft=4;spacingRight=4;overflow=hidden;points=[[0,0.5],[1,0.5]];portConstraint=eastwest;rotatable=0;whiteSpace=wrap;html=1;" vertex="1" parent="0_7FmObyVGuV5WAzf2Y2-31">
          <mxGeometry y="30" width="140" height="30" as="geometry" />
        </mxCell>
        <mxCell id="0_7FmObyVGuV5WAzf2Y2-33" value="COD_AUTOR" style="text;strokeColor=none;fillColor=none;align=left;verticalAlign=middle;spacingLeft=4;spacingRight=4;overflow=hidden;points=[[0,0.5],[1,0.5]];portConstraint=eastwest;rotatable=0;whiteSpace=wrap;html=1;" vertex="1" parent="0_7FmObyVGuV5WAzf2Y2-31">
          <mxGeometry y="60" width="140" height="30" as="geometry" />
        </mxCell>
        <mxCell id="0_7FmObyVGuV5WAzf2Y2-36" value="COD_ASSUNTO" style="text;strokeColor=none;fillColor=none;align=left;verticalAlign=middle;spacingLeft=4;spacingRight=4;overflow=hidden;points=[[0,0.5],[1,0.5]];portConstraint=eastwest;rotatable=0;whiteSpace=wrap;html=1;" vertex="1" parent="0_7FmObyVGuV5WAzf2Y2-31">
          <mxGeometry y="90" width="140" height="30" as="geometry" />
        </mxCell>
        <mxCell id="0_7FmObyVGuV5WAzf2Y2-45" value="NOME_LIVRO" style="text;strokeColor=none;fillColor=none;align=left;verticalAlign=middle;spacingLeft=4;spacingRight=4;overflow=hidden;points=[[0,0.5],[1,0.5]];portConstraint=eastwest;rotatable=0;whiteSpace=wrap;html=1;" vertex="1" parent="0_7FmObyVGuV5WAzf2Y2-31">
          <mxGeometry y="120" width="140" height="30" as="geometry" />
        </mxCell>
        <mxCell id="0_7FmObyVGuV5WAzf2Y2-47" value="NUM_EDICAO" style="text;strokeColor=none;fillColor=none;align=left;verticalAlign=middle;spacingLeft=4;spacingRight=4;overflow=hidden;points=[[0,0.5],[1,0.5]];portConstraint=eastwest;rotatable=0;whiteSpace=wrap;html=1;" vertex="1" parent="0_7FmObyVGuV5WAzf2Y2-31">
          <mxGeometry y="150" width="140" height="30" as="geometry" />
        </mxCell>
        <mxCell id="0_7FmObyVGuV5WAzf2Y2-35" value="" style="endArrow=none;html=1;rounded=0;entryX=0;entryY=0.5;entryDx=0;entryDy=0;exitX=0;exitY=0.5;exitDx=0;exitDy=0;" edge="1" parent="1" source="0_7FmObyVGuV5WAzf2Y2-32" target="0_7FmObyVGuV5WAzf2Y2-11">
          <mxGeometry width="50" height="50" relative="1" as="geometry">
            <mxPoint x="440" y="230" as="sourcePoint" />
            <mxPoint x="490" y="180" as="targetPoint" />
          </mxGeometry>
        </mxCell>
        <mxCell id="0_7FmObyVGuV5WAzf2Y2-37" value="AUTOR" style="swimlane;fontStyle=0;childLayout=stackLayout;horizontal=1;startSize=30;horizontalStack=0;resizeParent=1;resizeParentMax=0;resizeLast=0;collapsible=1;marginBottom=0;whiteSpace=wrap;html=1;fillColor=#EFFF0F;" vertex="1" parent="1">
          <mxGeometry x="230" y="270" width="140" height="90" as="geometry" />
        </mxCell>
        <mxCell id="0_7FmObyVGuV5WAzf2Y2-38" value="COD_AUTOR" style="text;strokeColor=none;fillColor=none;align=left;verticalAlign=middle;spacingLeft=4;spacingRight=4;overflow=hidden;points=[[0,0.5],[1,0.5]];portConstraint=eastwest;rotatable=0;whiteSpace=wrap;html=1;" vertex="1" parent="0_7FmObyVGuV5WAzf2Y2-37">
          <mxGeometry y="30" width="140" height="30" as="geometry" />
        </mxCell>
        <mxCell id="0_7FmObyVGuV5WAzf2Y2-39" value="NOME_AUTOR" style="text;strokeColor=none;fillColor=none;align=left;verticalAlign=middle;spacingLeft=4;spacingRight=4;overflow=hidden;points=[[0,0.5],[1,0.5]];portConstraint=eastwest;rotatable=0;whiteSpace=wrap;html=1;" vertex="1" parent="0_7FmObyVGuV5WAzf2Y2-37">
          <mxGeometry y="60" width="140" height="30" as="geometry" />
        </mxCell>
        <mxCell id="0_7FmObyVGuV5WAzf2Y2-40" value="" style="endArrow=none;html=1;rounded=0;entryX=0;entryY=0.5;entryDx=0;entryDy=0;exitX=1;exitY=0.5;exitDx=0;exitDy=0;" edge="1" parent="1" source="0_7FmObyVGuV5WAzf2Y2-33" target="0_7FmObyVGuV5WAzf2Y2-38">
          <mxGeometry width="50" height="50" relative="1" as="geometry">
            <mxPoint x="120" y="245" as="sourcePoint" />
            <mxPoint x="110" y="165" as="targetPoint" />
          </mxGeometry>
        </mxCell>
        <mxCell id="0_7FmObyVGuV5WAzf2Y2-41" value="ASSUNTO" style="swimlane;fontStyle=0;childLayout=stackLayout;horizontal=1;startSize=30;horizontalStack=0;resizeParent=1;resizeParentMax=0;resizeLast=0;collapsible=1;marginBottom=0;whiteSpace=wrap;html=1;fillColor=#EFFF0F;" vertex="1" parent="1">
          <mxGeometry x="50" y="360" width="140" height="90" as="geometry" />
        </mxCell>
        <mxCell id="0_7FmObyVGuV5WAzf2Y2-42" value="COD_ASSUNTO" style="text;strokeColor=none;fillColor=none;align=left;verticalAlign=middle;spacingLeft=4;spacingRight=4;overflow=hidden;points=[[0,0.5],[1,0.5]];portConstraint=eastwest;rotatable=0;whiteSpace=wrap;html=1;" vertex="1" parent="0_7FmObyVGuV5WAzf2Y2-41">
          <mxGeometry y="30" width="140" height="30" as="geometry" />
        </mxCell>
        <mxCell id="0_7FmObyVGuV5WAzf2Y2-43" value="DES_ASSUNTO" style="text;strokeColor=none;fillColor=none;align=left;verticalAlign=middle;spacingLeft=4;spacingRight=4;overflow=hidden;points=[[0,0.5],[1,0.5]];portConstraint=eastwest;rotatable=0;whiteSpace=wrap;html=1;" vertex="1" parent="0_7FmObyVGuV5WAzf2Y2-41">
          <mxGeometry y="60" width="140" height="30" as="geometry" />
        </mxCell>
        <mxCell id="0_7FmObyVGuV5WAzf2Y2-44" value="" style="endArrow=none;html=1;rounded=0;exitX=0;exitY=0.5;exitDx=0;exitDy=0;entryX=0;entryY=0.5;entryDx=0;entryDy=0;" edge="1" parent="1" source="0_7FmObyVGuV5WAzf2Y2-42" target="0_7FmObyVGuV5WAzf2Y2-36">
          <mxGeometry width="50" height="50" relative="1" as="geometry">
            <mxPoint x="590" y="245" as="sourcePoint" />
            <mxPoint x="460" y="350" as="targetPoint" />
          </mxGeometry>
        </mxCell>
        <mxCell id="0_7FmObyVGuV5WAzf2Y2-46" value="BD_BIBLIOTECA&lt;br&gt;COD_EMPRESTIMO = 1&lt;br&gt;COD_ALUNO = 1&lt;br&gt;COD_LIVROS_EMPRESTIMO = 1&lt;br&gt;COD_LIVROS_EMPRESTIMO = 2&lt;br&gt;COD_EMPRESTIMO = 1&lt;br&gt;COD_EMPRESTIMO = 1&lt;br&gt;COD_LIVRO = 1&lt;br&gt;COD_LIVRO = 2&lt;br&gt;COD_EXEMPLARES_EMPRESTIMO = 1&lt;br&gt;COD_EXEMPLARES_EMPRESTIMO = 2&lt;br&gt;COD_LIVROS_EMPRESTIMO = 1&lt;br&gt;COD_LIVROS_EMPRESTIMO = 2&lt;br&gt;QTD_EXEMPLAR = QTD 2&lt;br&gt;QTD_EXEMPLAR = QTD 2" style="text;html=1;strokeColor=none;fillColor=none;align=center;verticalAlign=middle;whiteSpace=wrap;rounded=0;" vertex="1" parent="1">
          <mxGeometry x="690" y="165" width="270" height="265" as="geometry" />
        </mxCell>
      </root>
    </mxGraphModel>
  </diagram>
</mxfile>
